<svg width="22" height="22" viewBox="0 0 22 22" fill="none" xmlns="http://www.w3.org/2000/svg">
<path d="M4.92457 22H0.363401V7.31173H4.92457V22ZM2.64153 5.30811C1.18302 5.30811 0 4.10005 0 2.64153C1.04394e-08 1.94095 0.278304 1.26907 0.773687 0.773687C1.26907 0.278303 1.94095 0 2.64153 0C3.34211 0 4.01399 0.278303 4.50938 0.773687C5.00476 1.26907 5.28306 1.94095 5.28306 2.64153C5.28306 4.10005 4.09956 5.30811 2.64153 5.30811ZM21.9956 22H17.4442V14.8498C17.4442 13.1458 17.4099 10.9605 15.0728 10.9605C12.7014 10.9605 12.338 12.8118 12.338 14.7271V22H7.78169V7.31173H12.1563V9.31534H12.2201C12.829 8.1613 14.3165 6.94341 16.5357 6.94341C21.1519 6.94341 22.0005 9.98321 22.0005 13.9315V22H21.9956Z" fill="#F26845"/>
</svg>
