<svg width="30" height="30" viewBox="0 0 30 30" fill="none" xmlns="http://www.w3.org/2000/svg">
<rect width="30" height="30" rx="15" fill="#F26845" fill-opacity="0.1"/>
<path d="M20.3583 21C19.0852 21 17.8249 20.725 16.5774 20.175C15.3299 19.625 14.1967 18.8407 13.1778 17.8222C12.1589 16.8037 11.3746 15.6731 10.825 14.4306C10.2754 13.188 10.0004 11.925 10 10.6417V10H13.6056L14.1708 13.0708L12.4292 14.8278C12.6532 15.225 12.9028 15.6019 13.1778 15.9583C13.4528 16.3148 13.7481 16.6458 14.0639 16.9514C14.3593 17.2468 14.6827 17.5295 15.0343 17.7996C15.3859 18.0697 15.7652 18.3217 16.1722 18.5556L17.9444 16.7833L21 17.4097V21H20.3583Z" fill="#F26845"/>
</svg>
