<svg width="54" height="54" viewBox="0 0 54 54" fill="none" xmlns="http://www.w3.org/2000/svg">
<rect width="54" height="54" rx="27" fill="#F26845" fill-opacity="0.1"/>
<path d="M20.5 35V33.5833C20.5 31.7047 21.2463 29.903 22.5747 28.5747C23.903 27.2463 25.7047 26.5 27.5833 26.5M27.5833 26.5C29.4619 26.5 31.2636 27.2463 32.592 28.5747C33.9204 29.903 34.6667 31.7047 34.6667 33.5833V35M27.5833 26.5C28.7105 26.5 29.7915 26.0522 30.5885 25.2552C31.3856 24.4582 31.8333 23.3772 31.8333 22.25C31.8333 21.1228 31.3856 20.0418 30.5885 19.2448C29.7915 18.4478 28.7105 18 27.5833 18C26.4562 18 25.3752 18.4478 24.5781 19.2448C23.7811 20.0418 23.3333 21.1228 23.3333 22.25C23.3333 23.3772 23.7811 24.4582 24.5781 25.2552C25.3752 26.0522 26.4562 26.5 27.5833 26.5ZM12 35V33.5833C12 32.4562 12.4478 31.3752 13.2448 30.5781C14.0418 29.7811 15.1228 29.3333 16.25 29.3333M16.25 29.3333C17.0014 29.3333 17.7221 29.0348 18.2535 28.5035C18.7848 27.9721 19.0833 27.2514 19.0833 26.5C19.0833 25.7486 18.7848 25.0279 18.2535 24.4965C17.7221 23.9652 17.0014 23.6667 16.25 23.6667C15.4986 23.6667 14.7779 23.9652 14.2465 24.4965C13.7152 25.0279 13.4167 25.7486 13.4167 26.5C13.4167 27.2514 13.7152 27.9721 14.2465 28.5035C14.7779 29.0348 15.4986 29.3333 16.25 29.3333ZM43.1667 35V33.5833C43.1667 32.4562 42.7189 31.3752 41.9219 30.5781C41.1248 29.7811 40.0438 29.3333 38.9167 29.3333M38.9167 29.3333C39.6681 29.3333 40.3888 29.0348 40.9201 28.5035C41.4515 27.9721 41.75 27.2514 41.75 26.5C41.75 25.7486 41.4515 25.0279 40.9201 24.4965C40.3888 23.9652 39.6681 23.6667 38.9167 23.6667C38.1652 23.6667 37.4446 23.9652 36.9132 24.4965C36.3818 25.0279 36.0833 25.7486 36.0833 26.5C36.0833 27.2514 36.3818 27.9721 36.9132 28.5035C37.4446 29.0348 38.1652 29.3333 38.9167 29.3333Z" stroke="#F26845" stroke-width="2.125" stroke-linecap="round" stroke-linejoin="round"/>
</svg>
