<svg width="54" height="54" viewBox="0 0 54 54" fill="none" xmlns="http://www.w3.org/2000/svg">
<rect width="54" height="54" rx="27" fill="#F26845" fill-opacity="0.1"/>
<path d="M27 35.5708C26.2315 35.571 25.4871 35.3099 24.8951 34.8326C24.3031 34.3553 23.9006 33.6917 23.7572 32.9563C21.5993 32.3067 19.699 31.0257 18.3144 29.2874C17.2691 27.9762 16.5509 26.4464 16.2164 24.8186C15.8819 23.1908 15.9402 21.5096 16.3868 19.9075C16.8333 18.3054 17.6559 16.8263 18.7896 15.5869C19.9233 14.3474 21.3372 13.3815 22.9197 12.7654C24.5021 12.1492 26.2099 11.8997 27.9083 12.0364C29.6067 12.1731 31.2493 12.6924 32.7065 13.5532C34.1636 14.4141 35.3956 15.5929 36.305 16.9969C37.2145 18.4008 37.7767 19.9914 37.9472 21.6431C38.0066 22.2325 37.5072 22.7125 36.9 22.7125C36.2928 22.7125 35.8066 22.2303 35.734 21.6431C35.5377 20.1276 34.9292 18.6907 33.9715 17.4812C33.0138 16.2716 31.7417 15.3333 30.2868 14.7633C28.832 14.1934 27.2472 14.0124 25.6965 14.2393C24.1458 14.4661 22.6854 15.0925 21.4666 16.0535C20.2477 17.0146 19.3147 18.2755 18.7639 19.7057C18.2131 21.1359 18.0647 22.6835 18.3339 24.1883C18.6032 25.6932 19.2803 27.1006 20.2953 28.265C21.3103 29.4293 22.6263 30.3084 24.107 30.8111C24.3869 30.3136 24.7971 29.8971 25.2957 29.604C25.7943 29.3109 26.3637 29.1515 26.9461 29.1421C27.5284 29.1327 28.1029 29.2736 28.6113 29.5505C29.1196 29.8273 29.5437 30.2303 29.8404 30.7185C30.1371 31.2067 30.2959 31.7627 30.3007 32.33C30.3054 32.8973 30.156 33.4557 29.8675 33.9486C29.579 34.4414 29.1617 34.8511 28.6581 35.136C28.1545 35.421 27.5824 35.571 27 35.5708ZM18.2 32.3562V32.2984C17.5984 31.7736 17.0476 31.1961 16.5544 30.5732C16.193 31.1012 16.0001 31.7216 16 32.3562V33.4278C16 37.6517 20.092 42 27 42C33.908 42 38 37.6517 38 33.4278V32.3562C38 31.5037 37.6523 30.686 37.0335 30.0832C36.4146 29.4803 35.5752 29.1417 34.7 29.1417H31.4C31.8818 29.7632 32.225 30.4918 32.39 31.2847H34.7C34.9917 31.2847 35.2715 31.3976 35.4778 31.5986C35.6841 31.7995 35.8 32.0721 35.8 32.3562V33.4278C35.8 36.5095 32.6496 39.8569 27 39.8569C21.3504 39.8569 18.2 36.5095 18.2 33.4278V32.3562ZM27 26.9986C25.7412 26.9986 24.5205 27.4191 23.5416 28.1901C22.5797 27.6161 21.7856 26.8108 21.2354 25.8515C20.6853 24.8923 20.3976 23.8113 20.4 22.7125C20.4003 21.5916 20.7015 20.4903 21.2735 19.5178C21.8456 18.5453 22.6688 17.7354 23.6614 17.1684C24.6539 16.6014 25.7814 16.297 26.932 16.2855C28.0826 16.2739 29.2163 16.5556 30.2206 17.1026C31.225 17.6495 32.0651 18.4427 32.6576 19.4036C33.2502 20.3644 33.5745 21.4594 33.5986 22.58C33.6226 23.7007 33.3454 24.8079 32.7946 25.792C32.2438 26.7761 31.4384 27.6028 30.4584 28.1901C29.4795 27.4191 28.2588 26.9986 27 26.9986ZM22.6 22.7125C22.6 23.8492 23.0636 24.9394 23.8887 25.7432C24.7139 26.547 25.833 26.9986 27 26.9986C28.167 26.9986 29.2861 26.547 30.1113 25.7432C30.9364 24.9394 31.4 23.8492 31.4 22.7125C31.4 21.5758 30.9364 20.4856 30.1113 19.6818C29.2861 18.878 28.167 18.4264 27 18.4264C25.833 18.4264 24.7139 18.878 23.8887 19.6818C23.0636 20.4856 22.6 21.5758 22.6 22.7125Z" fill="#F26845"/>
</svg>
