<svg width="30" height="30" viewBox="0 0 30 30" fill="none" xmlns="http://www.w3.org/2000/svg">
<rect width="30" height="30" rx="15" fill="#F26845" fill-opacity="0.1"/>
<path d="M14.5 8C13.0418 8.00172 11.6439 8.58174 10.6128 9.61281C9.58174 10.6439 9.00172 12.0418 9 13.5C8.99866 14.6915 9.38786 15.8507 10.108 16.8C10.108 16.8 10.258 16.9975 10.2825 17.026L14.5 22L18.7195 17.0235C18.7415 16.997 18.892 16.8 18.892 16.8L18.8925 16.7985C19.6122 15.8495 20.0012 14.691 20 13.5C19.9983 12.0418 19.4183 10.6439 18.3872 9.61281C17.3561 8.58174 15.9582 8.00172 14.5 8ZM14.5 15.5C14.1044 15.5 13.7178 15.3827 13.3889 15.1629C13.06 14.9432 12.8036 14.6308 12.6522 14.2654C12.5009 13.8999 12.4613 13.4978 12.5384 13.1098C12.6156 12.7219 12.8061 12.3655 13.0858 12.0858C13.3655 11.8061 13.7219 11.6156 14.1098 11.5384C14.4978 11.4613 14.8999 11.5009 15.2654 11.6522C15.6308 11.8036 15.9432 12.06 16.1629 12.3889C16.3827 12.7178 16.5 13.1044 16.5 13.5C16.4993 14.0302 16.2884 14.5386 15.9135 14.9135C15.5386 15.2884 15.0302 15.4993 14.5 15.5Z" fill="#F26845"/>
</svg>
