<svg width="24" height="17" viewBox="0 0 24 17" fill="none" xmlns="http://www.w3.org/2000/svg">
<path d="M22.9917 2.58342C22.7217 1.56653 21.926 0.765657 20.9156 0.49387C19.0844 0 11.7412 0 11.7412 0C11.7412 0 4.39809 0 2.56678 0.49387C1.55647 0.7657 0.760756 1.56653 0.490688 2.58342C0 4.4266 0 8.27221 0 8.27221C0 8.27221 0 12.1178 0.490688 13.961C0.760756 14.9779 1.55647 15.7454 2.56678 16.0172C4.39809 16.5111 11.7412 16.5111 11.7412 16.5111C11.7412 16.5111 19.0843 16.5111 20.9156 16.0172C21.926 15.7454 22.7217 14.9779 22.9917 13.961C23.4824 12.1178 23.4824 8.27221 23.4824 8.27221C23.4824 8.27221 23.4824 4.4266 22.9917 2.58342ZM9.33958 11.7637V4.78068L15.477 8.2723L9.33958 11.7637Z" fill="#09003A"/>
</svg>
