<svg width="54" height="54" viewBox="0 0 54 54" fill="none" xmlns="http://www.w3.org/2000/svg">
<rect width="54" height="54" rx="27" fill="#F26845" fill-opacity="0.1"/>
<path d="M36 27C36 25.8181 35.7672 24.6478 35.3149 23.5558C34.8626 22.4639 34.1997 21.4718 33.364 20.636C32.5282 19.8003 31.5361 19.1374 30.4442 18.6851C29.3522 18.2328 28.1819 18 27 18C25.8181 18 24.6478 18.2328 23.5558 18.6851C22.4639 19.1374 21.4718 19.8003 20.636 20.636C19.8003 21.4718 19.1374 22.4639 18.6851 23.5558C18.2328 24.6478 18 25.8181 18 27C18 28.1819 18.2328 29.3522 18.6851 30.4442C19.1374 31.5361 19.8003 32.5282 20.636 33.364C21.4718 34.1997 22.4639 34.8626 23.5558 35.3149C24.6478 35.7672 25.8181 36 27 36C28.1819 36 29.3522 35.7672 30.4442 35.3149C31.5361 34.8626 32.5282 34.1997 33.364 33.364C34.1997 32.5282 34.8626 31.5361 35.3149 30.4442C35.7672 29.3522 36 28.1819 36 27ZM15 27C15 23.8174 16.2643 20.7652 18.5147 18.5147C20.7652 16.2643 23.8174 15 27 15C30.1826 15 33.2348 16.2643 35.4853 18.5147C37.7357 20.7652 39 23.8174 39 27C39 30.1826 37.7357 33.2348 35.4853 35.4853C33.2348 37.7357 30.1826 39 27 39C23.8174 39 20.7652 37.7357 18.5147 35.4853C16.2643 33.2348 15 30.1826 15 27ZM27 30.75C27.9946 30.75 28.9484 30.3549 29.6517 29.6517C30.3549 28.9484 30.75 27.9946 30.75 27C30.75 26.0054 30.3549 25.0516 29.6517 24.3483C28.9484 23.6451 27.9946 23.25 27 23.25C26.0054 23.25 25.0516 23.6451 24.3483 24.3483C23.6451 25.0516 23.25 26.0054 23.25 27C23.25 27.9946 23.6451 28.9484 24.3483 29.6517C25.0516 30.3549 26.0054 30.75 27 30.75ZM27 20.25C28.7902 20.25 30.5071 20.9612 31.773 22.227C33.0388 23.4929 33.75 25.2098 33.75 27C33.75 28.7902 33.0388 30.5071 31.773 31.773C30.5071 33.0388 28.7902 33.75 27 33.75C25.2098 33.75 23.4929 33.0388 22.227 31.773C20.9612 30.5071 20.25 28.7902 20.25 27C20.25 25.2098 20.9612 23.4929 22.227 22.227C23.4929 20.9612 25.2098 20.25 27 20.25ZM25.5 27C25.5 26.6022 25.658 26.2206 25.9393 25.9393C26.2206 25.658 26.6022 25.5 27 25.5C27.3978 25.5 27.7794 25.658 28.0607 25.9393C28.342 26.2206 28.5 26.6022 28.5 27C28.5 27.3978 28.342 27.7794 28.0607 28.0607C27.7794 28.342 27.3978 28.5 27 28.5C26.6022 28.5 26.2206 28.342 25.9393 28.0607C25.658 27.7794 25.5 27.3978 25.5 27Z" fill="#F26845"/>
</svg>
