<svg width="89" height="59" viewBox="0 0 89 59" fill="none" xmlns="http://www.w3.org/2000/svg">
<path d="M0.00218755 1.4108H10.9822L25.0884 41.2514L39.3853 1.4108H50.3653L30.1591 57.4927H19.8653L0.00218755 1.4108ZM87.1178 9.0358L79.2259 16.0127C76.4555 12.1493 73.6343 10.2177 70.7622 10.2177C69.3643 10.2177 68.2205 10.5989 67.3309 11.3614C66.4414 12.0985 65.9966 12.9373 65.9966 13.8777C65.9966 14.8181 66.3143 15.7077 66.9497 16.5464C67.8139 17.6648 70.4191 20.0666 74.7653 23.752C78.832 27.1579 81.2974 29.3056 82.1616 30.1952C84.322 32.381 85.847 34.4779 86.7366 36.4858C87.6516 38.4683 88.1091 40.6414 88.1091 43.0052C88.1091 47.6056 86.5205 51.4054 83.3434 54.4046C80.1664 57.4037 76.0234 58.9033 70.9147 58.9033C66.9243 58.9033 63.4422 57.9248 60.4684 55.9677C57.5201 54.0106 54.9911 50.9352 52.8816 46.7414L61.8409 41.3277C64.5351 46.2839 67.6359 48.7621 71.1434 48.7621C72.9734 48.7621 74.5111 48.2283 75.7566 47.1608C77.002 46.0933 77.6247 44.8606 77.6247 43.4627C77.6247 42.1918 77.1545 40.921 76.2141 39.6502C75.2736 38.3793 73.2022 36.435 69.9997 33.8171C63.8997 28.8354 59.9601 24.9975 58.1809 22.3033C56.4018 19.5837 55.5122 16.8768 55.5122 14.1827C55.5122 10.2939 56.9864 6.96434 59.9347 4.19392C62.9084 1.39809 66.5684 0.000174433 70.9147 0.000174433C73.7105 0.000174433 76.3666 0.648299 78.8828 1.94455C81.4245 3.2408 84.1695 5.60455 87.1178 9.0358Z" fill="#09003A"/>
</svg>
