<svg width="1058" height="54" viewBox="0 0 1058 54" fill="none" xmlns="http://www.w3.org/2000/svg">
<rect x="1" y="1" width="52" height="52" rx="26" fill="#F26845"/>
<rect x="1" y="1" width="52" height="52" rx="26" stroke="#F26845" stroke-width="2"/>
<line x1="38" y1="27.5" x2="1058" y2="27.5" stroke="#F26845" stroke-dasharray="4 4"/>
<path d="M22.7286 16.1531C22.3677 15.2813 21.4161 14.8172 20.5068 15.0656L16.3818 16.1906C15.5661 16.4156 14.9989 17.1563 14.9989 18C14.9989 29.5969 24.4021 39 35.9989 39C36.8427 39 37.5833 38.4328 37.8083 37.6172L38.9333 33.4922C39.1818 32.5828 38.7177 31.6313 37.8458 31.2703L33.3458 29.3953C32.5818 29.0766 31.6958 29.2969 31.1755 29.9391L29.2818 32.25C25.9818 30.6891 23.3099 28.0172 21.7489 24.7172L24.0599 22.8281C24.7021 22.3031 24.9224 21.4219 24.6036 20.6578L22.7286 16.1578V16.1531Z" fill="#EFF3F4"/>
</svg>
