<svg width="54" height="54" viewBox="0 0 54 54" fill="none" xmlns="http://www.w3.org/2000/svg">
<rect x="1" y="1" width="52" height="52" rx="26" fill="#F26845"/>
<rect x="1" y="1" width="52" height="52" rx="26" stroke="#F26845" stroke-width="2"/>
<path d="M37.0594 22.0594C37.6453 21.4734 37.6453 20.5219 37.0594 19.9359L32.5594 15.4359C31.9734 14.85 31.0219 14.85 30.4359 15.4359C29.85 16.0219 29.85 16.9734 30.4359 17.5594L32.3766 19.5H18C17.1703 19.5 16.5 20.1703 16.5 21C16.5 21.8297 17.1703 22.5 18 22.5H32.3766L30.4359 24.4406C29.85 25.0265 29.85 25.9781 30.4359 26.564C31.0219 27.15 31.9734 27.15 32.5594 26.564L37.0594 22.064V22.0594ZM21.4359 38.5594C22.0219 39.1453 22.9734 39.1453 23.5594 38.5594C24.1453 37.9734 24.1453 37.0219 23.5594 36.4359L21.6234 34.5H36C36.8297 34.5 37.5 33.8297 37.5 33C37.5 32.1703 36.8297 31.5 36 31.5H21.6234L23.5641 29.5594C24.15 28.9734 24.15 28.0219 23.5641 27.4359C22.9781 26.85 22.0266 26.85 21.4406 27.4359L16.9406 31.9359C16.3547 32.5219 16.3547 33.4734 16.9406 34.0594L21.4406 38.5594H21.4359Z" fill="#EFF3F4"/>
</svg>
