<svg width="54" height="54" viewBox="0 0 54 54" fill="none" xmlns="http://www.w3.org/2000/svg">
<rect x="1" y="1" width="52" height="52" rx="26" fill="#F26845"/>
<rect x="1" y="1" width="52" height="52" rx="26" stroke="#F26845" stroke-width="2"/>
<path d="M29.4 21V29.4H17.4V21H29.4ZM17.4 18.6C16.0763 18.6 15 19.6762 15 21V29.4C15 30.7237 16.0763 31.8 17.4 31.8H21.7988L21.3975 33H18.6C17.9362 33 17.4 33.5362 17.4 34.2C17.4 34.8637 17.9362 35.4 18.6 35.4H28.2C28.8638 35.4 29.4 34.8637 29.4 34.2C29.4 33.5362 28.8638 33 28.2 33H25.3988L24.9975 31.8H29.4C30.7238 31.8 31.8 30.7237 31.8 29.4V21C31.8 19.6762 30.7238 18.6 29.4 18.6H17.4ZM34.8 18.6C33.8063 18.6 33 19.4062 33 20.4V33.6C33 34.5937 33.8063 35.4 34.8 35.4H37.2C38.1938 35.4 39 34.5937 39 33.6V20.4C39 19.4062 38.1938 18.6 37.2 18.6H34.8ZM35.4 21H36.6C36.93 21 37.2 21.27 37.2 21.6C37.2 21.93 36.93 22.2 36.6 22.2H35.4C35.07 22.2 34.8 21.93 34.8 21.6C34.8 21.27 35.07 21 35.4 21ZM34.8 24C34.8 23.67 35.07 23.4 35.4 23.4H36.6C36.93 23.4 37.2 23.67 37.2 24C37.2 24.33 36.93 24.6 36.6 24.6H35.4C35.07 24.6 34.8 24.33 34.8 24ZM36 30C36.3183 30 36.6235 30.1264 36.8485 30.3514C37.0736 30.5765 37.2 30.8817 37.2 31.2C37.2 31.5182 37.0736 31.8235 36.8485 32.0485C36.6235 32.2735 36.3183 32.4 36 32.4C35.6817 32.4 35.3765 32.2735 35.1515 32.0485C34.9264 31.8235 34.8 31.5182 34.8 31.2C34.8 30.8817 34.9264 30.5765 35.1515 30.3514C35.3765 30.1264 35.6817 30 36 30Z" fill="#EFF3F4"/>
</svg>
