<svg width="54" height="54" viewBox="0 0 54 54" fill="none" xmlns="http://www.w3.org/2000/svg">
<rect x="1" y="1" width="52" height="52" rx="26" fill="#F26845"/>
<rect x="1" y="1" width="52" height="52" rx="26" stroke="#F26845" stroke-width="2"/>
<path d="M31.0031 23C30.2656 23 29.6698 22.4041 29.6698 21.6666C29.6698 20.9291 30.2656 20.3333 31.0031 20.3333H37.6698C38.4073 20.3333 39.0031 20.9291 39.0031 21.6666V28.3333C39.0031 29.0708 38.4073 29.6666 37.6698 29.6666C36.9323 29.6666 36.3365 29.0708 36.3365 28.3333V24.8875L29.2781 31.9416C28.7573 32.4625 27.9115 32.4625 27.3906 31.9416L23.0031 27.5541L17.2781 33.275C16.7573 33.7958 15.9115 33.7958 15.3906 33.275C14.8698 32.7541 14.8698 31.9083 15.3906 31.3875L22.0573 24.7208C22.5781 24.2 23.424 24.2 23.9448 24.7208L28.3365 29.1125L34.449 23H31.0031Z" fill="#EFF3F4"/>
</svg>
