<svg width="54" height="54" viewBox="0 0 54 54" fill="none" xmlns="http://www.w3.org/2000/svg">
<rect x="1" y="1" width="52" height="52" rx="26" fill="#F26845"/>
<rect x="1" y="1" width="52" height="52" rx="26" stroke="#F26845" stroke-width="2"/>
<path d="M38.2455 22.8094C38.3955 23.2172 38.269 23.6719 37.9455 23.9625L35.9158 25.8094C35.9674 26.1984 35.9955 26.5969 35.9955 27C35.9955 27.4031 35.9674 27.8016 35.9158 28.1906L37.9455 30.0375C38.269 30.3281 38.3955 30.7828 38.2455 31.1906C38.0393 31.7484 37.7908 32.2828 37.5049 32.7984L37.2846 33.1781C36.9752 33.6937 36.6283 34.1812 36.2486 34.6406C35.9721 34.9781 35.5127 35.0906 35.1002 34.9594L32.4893 34.1297C31.8611 34.6125 31.1674 35.0156 30.4268 35.3203L29.8408 37.9969C29.7471 38.4234 29.419 38.7609 28.9877 38.8312C28.3408 38.9391 27.6752 38.9953 26.9955 38.9953C26.3158 38.9953 25.6502 38.9391 25.0033 38.8312C24.5721 38.7609 24.244 38.4234 24.1502 37.9969L23.5643 35.3203C22.8236 35.0156 22.1299 34.6125 21.5018 34.1297L18.8955 34.9641C18.483 35.0953 18.0236 34.9781 17.7471 34.6453C17.3674 34.1859 17.0205 33.6984 16.7111 33.1828L16.4908 32.8031C16.2049 32.2875 15.9565 31.7531 15.7502 31.1953C15.6002 30.7875 15.7268 30.3328 16.0502 30.0422L18.0799 28.1953C18.0283 27.8016 18.0002 27.4031 18.0002 27C18.0002 26.5969 18.0283 26.1984 18.0799 25.8094L16.0502 23.9625C15.7268 23.6719 15.6002 23.2172 15.7502 22.8094C15.9565 22.2516 16.2049 21.7172 16.4908 21.2016L16.7111 20.8219C17.0205 20.3062 17.3674 19.8187 17.7471 19.3594C18.0236 19.0219 18.483 18.9094 18.8955 19.0406L21.5065 19.8703C22.1346 19.3875 22.8283 18.9844 23.569 18.6797L24.1549 16.0031C24.2486 15.5766 24.5768 15.2391 25.008 15.1687C25.6549 15.0562 26.3205 15 27.0002 15C27.6799 15 28.3455 15.0563 28.9924 15.1641C29.4236 15.2344 29.7518 15.5719 29.8455 15.9984L30.4315 18.675C31.1721 18.9797 31.8658 19.3828 32.494 19.8656L35.1049 19.0359C35.5174 18.9047 35.9768 19.0219 36.2533 19.3547C36.633 19.8141 36.9799 20.3016 37.2893 20.8172L37.5096 21.1969C37.7955 21.7125 38.044 22.2469 38.2502 22.8047L38.2455 22.8094ZM27.0002 30.75C27.9948 30.75 28.9486 30.3549 29.6519 29.6517C30.3551 28.9484 30.7502 27.9946 30.7502 27C30.7502 26.0054 30.3551 25.0516 29.6519 24.3483C28.9486 23.6451 27.9948 23.25 27.0002 23.25C26.0056 23.25 25.0518 23.6451 24.3486 24.3483C23.6453 25.0516 23.2502 26.0054 23.2502 27C23.2502 27.9946 23.6453 28.9484 24.3486 29.6517C25.0518 30.3549 26.0056 30.75 27.0002 30.75Z" fill="#EFF3F4"/>
</svg>
