<svg width="20" height="20" viewBox="0 0 20 20" fill="none" xmlns="http://www.w3.org/2000/svg">
<path d="M19.0824 5.41922C18.8643 4.59804 18.2217 3.95131 17.4058 3.73183C15.927 3.33301 9.99712 3.33301 9.99712 3.33301C9.99712 3.33301 4.06726 3.33301 2.5884 3.73183C1.77253 3.95134 1.12997 4.59804 0.911875 5.41922C0.515625 6.90766 0.515625 10.0131 0.515625 10.0131C0.515625 10.0131 0.515625 13.1186 0.911875 14.6071C1.12997 15.4283 1.77253 16.048 2.5884 16.2675C4.06726 16.6663 9.99712 16.6663 9.99712 16.6663C9.99712 16.6663 15.927 16.6663 17.4058 16.2675C18.2217 16.048 18.8643 15.4283 19.0824 14.6071C19.4786 13.1186 19.4786 10.0131 19.4786 10.0131C19.4786 10.0131 19.4786 6.90766 19.0824 5.41922ZM8.05771 12.8327V7.1936L13.0139 10.0132L8.05771 12.8327Z" fill="white"/>
</svg>
