<svg width="20" height="20" viewBox="0 0 20 20" fill="none" xmlns="http://www.w3.org/2000/svg">
<path d="M6.79108 0.214844C7.22077 -0.0703125 7.78327 -0.0703125 8.21296 0.214844L8.90827 0.671875C9.14265 0.824219 9.41608 0.898438 9.69343 0.882812L10.5255 0.832031C11.0411 0.800781 11.5255 1.08203 11.7559 1.54297L12.1309 2.28906C12.2559 2.53906 12.4591 2.73828 12.7051 2.86328L13.4591 3.24219C13.92 3.47266 14.2012 3.95703 14.17 4.47266L14.1192 5.30469C14.1036 5.58203 14.1778 5.85938 14.3301 6.08984L14.7911 6.78516C15.0762 7.21484 15.0762 7.77734 14.7911 8.20703L14.3301 8.90625C14.1778 9.14062 14.1036 9.41406 14.1192 9.69141L14.17 10.5234C14.2012 11.0391 13.92 11.5234 13.4591 11.7539L12.713 12.1289C12.463 12.2539 12.2637 12.457 12.1387 12.7031L11.7598 13.457C11.5294 13.918 11.045 14.1992 10.5294 14.168L9.69733 14.1172C9.41999 14.1016 9.14265 14.1758 8.91218 14.3281L8.21686 14.7891C7.78718 15.0742 7.22468 15.0742 6.79499 14.7891L6.09577 14.3281C5.8614 14.1758 5.58796 14.1016 5.31061 14.1172L4.47858 14.168C3.96296 14.1992 3.47858 13.918 3.24811 13.457L2.87311 12.7109C2.74811 12.4609 2.54499 12.2617 2.2989 12.1367L1.54499 11.7578C1.08405 11.5273 0.802802 11.043 0.834052 10.5273L0.884833 9.69531C0.900458 9.41797 0.826239 9.14063 0.673895 8.91016L0.216864 8.21094C-0.068292 7.78125 -0.068292 7.21875 0.216864 6.78906L0.673895 6.09375C0.826239 5.85938 0.900458 5.58594 0.884833 5.30859L0.834052 4.47656C0.802802 3.96094 1.08405 3.47656 1.54499 3.24609L2.29108 2.87109C2.54108 2.74219 2.74421 2.53906 2.86921 2.28906L3.24421 1.54297C3.47468 1.08203 3.95905 0.800781 4.47468 0.832031L5.30671 0.882812C5.58405 0.898438 5.8614 0.824219 6.09186 0.671875L6.79108 0.214844ZM10.627 7.5C10.627 6.6712 10.2978 5.87634 9.71173 5.29029C9.12568 4.70424 8.33082 4.375 7.50202 4.375C6.67322 4.375 5.87836 4.70424 5.29231 5.29029C4.70626 5.87634 4.37702 6.6712 4.37702 7.5C4.37702 8.3288 4.70626 9.12366 5.29231 9.70971C5.87836 10.2958 6.67322 10.625 7.50202 10.625C8.33082 10.625 9.12568 10.2958 9.71173 9.70971C10.2978 9.12366 10.627 8.3288 10.627 7.5ZM0.0528017 17.2578L1.7364 13.2539C1.74421 13.2578 1.74811 13.2617 1.75202 13.2695L2.12702 14.0156C2.58405 14.9219 3.53327 15.4727 4.5489 15.4141L5.38093 15.3633C5.38874 15.3633 5.40046 15.3633 5.40827 15.3711L6.10358 15.832C6.3028 15.9609 6.51374 16.0625 6.73249 16.1328L5.26374 19.6211C5.1739 19.8359 4.97468 19.9805 4.74421 20C4.51374 20.0195 4.29108 19.9141 4.16608 19.7188L2.90827 17.793L0.716864 18.1172C0.494208 18.1484 0.271552 18.0586 0.130927 17.8828C-0.00969827 17.707 -0.037042 17.4648 0.0488955 17.2578H0.0528017ZM9.7403 19.6172L8.27155 16.1328C8.4903 16.0625 8.70124 15.9648 8.90046 15.832L9.59577 15.3711C9.60358 15.3672 9.6114 15.3633 9.62311 15.3633L10.4551 15.4141C11.4708 15.4727 12.42 14.9219 12.877 14.0156L13.252 13.2695C13.2559 13.2617 13.2598 13.2578 13.2676 13.2539L14.9551 17.2578C15.0411 17.4648 15.0098 17.7031 14.8731 17.8828C14.7364 18.0625 14.5098 18.1523 14.2872 18.1172L12.0958 17.793L10.838 19.7148C10.713 19.9102 10.4903 20.0156 10.2598 19.9961C10.0294 19.9766 9.83015 19.8281 9.7403 19.6172Z" fill="white"/>
</svg>
