<svg width="20" height="20" viewBox="0 0 20 20" fill="none" xmlns="http://www.w3.org/2000/svg">
<path d="M8.75684 5.50781C6.27246 5.50781 4.26855 7.51172 4.26855 9.99609C4.26855 12.4805 6.27246 14.4844 8.75684 14.4844C11.2412 14.4844 13.2451 12.4805 13.2451 9.99609C13.2451 7.51172 11.2412 5.50781 8.75684 5.50781ZM8.75684 12.9141C7.15137 12.9141 5.83887 11.6055 5.83887 9.99609C5.83887 8.38672 7.14746 7.07812 8.75684 7.07812C10.3662 7.07812 11.6748 8.38672 11.6748 9.99609C11.6748 11.6055 10.3623 12.9141 8.75684 12.9141ZM14.4756 5.32422C14.4756 5.90625 14.0068 6.37109 13.4287 6.37109C12.8467 6.37109 12.3818 5.90234 12.3818 5.32422C12.3818 4.74609 12.8506 4.27734 13.4287 4.27734C14.0068 4.27734 14.4756 4.74609 14.4756 5.32422ZM17.4482 6.38672C17.3818 4.98438 17.0615 3.74219 16.0342 2.71875C15.0107 1.69531 13.7686 1.375 12.3662 1.30469C10.9209 1.22266 6.58887 1.22266 5.14355 1.30469C3.74512 1.37109 2.50293 1.69141 1.47559 2.71484C0.448242 3.73828 0.131836 4.98047 0.0615234 6.38281C-0.0205078 7.82812 -0.0205078 12.1602 0.0615234 13.6055C0.12793 15.0078 0.448242 16.25 1.47559 17.2734C2.50293 18.2969 3.74121 18.6172 5.14355 18.6875C6.58887 18.7695 10.9209 18.7695 12.3662 18.6875C13.7686 18.6211 15.0107 18.3008 16.0342 17.2734C17.0576 16.25 17.3779 15.0078 17.4482 13.6055C17.5303 12.1602 17.5303 7.83203 17.4482 6.38672ZM15.5811 15.1562C15.2764 15.9219 14.6865 16.5117 13.917 16.8203C12.7646 17.2773 10.0303 17.1719 8.75684 17.1719C7.4834 17.1719 4.74512 17.2734 3.59668 16.8203C2.83105 16.5156 2.24121 15.9258 1.93262 15.1562C1.47559 14.0039 1.58105 11.2695 1.58105 9.99609C1.58105 8.72266 1.47949 5.98438 1.93262 4.83594C2.2373 4.07031 2.82715 3.48047 3.59668 3.17187C4.74902 2.71484 7.4834 2.82031 8.75684 2.82031C10.0303 2.82031 12.7686 2.71875 13.917 3.17187C14.6826 3.47656 15.2725 4.06641 15.5811 4.83594C16.0381 5.98828 15.9326 8.72266 15.9326 9.99609C15.9326 11.2695 16.0381 14.0078 15.5811 15.1562Z" fill="white"/>
</svg>
