<svg width="20" height="20" viewBox="0 0 20 20" fill="none" xmlns="http://www.w3.org/2000/svg">
<path d="M15.625 1.25H1.875C1.37772 1.25 0.900805 1.44754 0.549175 1.79917C0.197544 2.15081 0 2.62772 0 3.125L0 16.875C0 17.3723 0.197544 17.8492 0.549175 18.2008C0.900805 18.5525 1.37772 18.75 1.875 18.75H7.23633V12.8004H4.77539V10H7.23633V7.86562C7.23633 5.43789 8.68164 4.09687 10.8953 4.09687C11.9555 4.09687 13.0641 4.28594 13.0641 4.28594V6.66875H11.8426C10.6391 6.66875 10.2637 7.41562 10.2637 8.18164V10H12.9504L12.5207 12.8004H10.2637V18.75H15.625C16.1223 18.75 16.5992 18.5525 16.9508 18.2008C17.3025 17.8492 17.5 17.3723 17.5 16.875V3.125C17.5 2.62772 17.3025 2.15081 16.9508 1.79917C16.5992 1.44754 16.1223 1.25 15.625 1.25Z" fill="white"/>
</svg>
