<svg width="54" height="54" viewBox="0 0 54 54" fill="none" xmlns="http://www.w3.org/2000/svg">
<rect width="54" height="54" rx="27" fill="#F26845" fill-opacity="0.1"/>
<path d="M37.5 16.5002C37.5 15.8955 37.1344 15.347 36.5719 15.1127C36.0094 14.8783 35.3672 15.0095 34.9359 15.4361L32.8922 17.4845C30.6422 19.7345 27.5906 21.0002 24.4078 21.0002H24H22.5H18C16.3453 21.0002 15 22.3455 15 24.0002V28.5002C15 30.1549 16.3453 31.5002 18 31.5002V37.5002C18 38.3299 18.6703 39.0002 19.5 39.0002H22.5C23.3297 39.0002 24 38.3299 24 37.5002V31.5002H24.4078C27.5906 31.5002 30.6422 32.7658 32.8922 35.0158L34.9359 37.0595C35.3672 37.4908 36.0094 37.6174 36.5719 37.383C37.1344 37.1486 37.5 36.6049 37.5 35.9955V29.0814C38.3719 28.6689 39 27.558 39 26.2502C39 24.9424 38.3719 23.8314 37.5 23.4189V16.5002ZM34.5 20.0955V26.2502V32.4049C31.7437 29.897 28.1484 28.5002 24.4078 28.5002H24V24.0002H24.4078C28.1484 24.0002 31.7437 22.6033 34.5 20.0955Z" fill="#F26845"/>
</svg>
