<svg width="54" height="54" viewBox="0 0 54 54" fill="none" xmlns="http://www.w3.org/2000/svg">
<rect width="54" height="54" rx="27" fill="#F26845" fill-opacity="0.1"/>
<path d="M16.5 16.5C17.3297 16.5 18 17.1703 18 18V33.75C18 34.1625 18.3375 34.5 18.75 34.5H37.5C38.3297 34.5 39 35.1703 39 36C39 36.8297 38.3297 37.5 37.5 37.5H18.75C16.6781 37.5 15 35.8219 15 33.75V18C15 17.1703 15.6703 16.5 16.5 16.5ZM22.5 25.5C23.3297 25.5 24 26.1703 24 27V30C24 30.8297 23.3297 31.5 22.5 31.5C21.6703 31.5 21 30.8297 21 30V27C21 26.1703 21.6703 25.5 22.5 25.5ZM28.5 22.5V30C28.5 30.8297 27.8297 31.5 27 31.5C26.1703 31.5 25.5 30.8297 25.5 30V22.5C25.5 21.6703 26.1703 21 27 21C27.8297 21 28.5 21.6703 28.5 22.5ZM31.5 24C32.3297 24 33 24.6703 33 25.5V30C33 30.8297 32.3297 31.5 31.5 31.5C30.6703 31.5 30 30.8297 30 30V25.5C30 24.6703 30.6703 24 31.5 24ZM37.5 19.5V30C37.5 30.8297 36.8297 31.5 36 31.5C35.1703 31.5 34.5 30.8297 34.5 30V19.5C34.5 18.6703 35.1703 18 36 18C36.8297 18 37.5 18.6703 37.5 19.5Z" fill="#F26845"/>
</svg>
