<svg width="54" height="54" viewBox="0 0 54 54" fill="none" xmlns="http://www.w3.org/2000/svg">
<rect x="1" y="1" width="52" height="52" rx="26" fill="#F26845"/>
<rect x="1" y="1" width="52" height="52" rx="26" stroke="#F26845" stroke-width="2"/>
<path d="M31.2714 16.1532C31.6323 15.2813 32.5839 14.8173 33.4932 15.0657L37.6182 16.1907C38.4339 16.4157 39.0011 17.1563 39.0011 18.0001C39.0011 29.597 29.5979 39.0001 18.0011 39.0001C17.1573 39.0001 16.4167 38.4329 16.1917 37.6173L15.0667 33.4923C14.8182 32.5829 15.2823 31.6313 16.1542 31.2704L20.6542 29.3954C21.4182 29.0766 22.3042 29.297 22.8245 29.9391L24.7182 32.2501C28.0182 30.6891 30.6901 28.0173 32.2511 24.7173L29.9401 22.8282C29.2979 22.3032 29.0776 21.422 29.3964 20.6579L31.2714 16.1579V16.1532Z" fill="#EFF3F4"/>
</svg>
