<svg width="54" height="54" viewBox="0 0 54 54" fill="none" xmlns="http://www.w3.org/2000/svg">
<rect x="1" y="1" width="52" height="52" rx="26" fill="#F26845"/>
<rect x="1" y="1" width="52" height="52" rx="26" stroke="#F26845" stroke-width="2"/>
<path d="M37.0594 22.0595C37.6453 21.4735 37.6453 20.522 37.0594 19.936L32.5594 15.436C31.9734 14.8501 31.0219 14.8501 30.4359 15.436C29.85 16.022 29.85 16.9735 30.4359 17.5595L32.3766 19.5001H18C17.1703 19.5001 16.5 20.1704 16.5 21.0001C16.5 21.8298 17.1703 22.5001 18 22.5001H32.3766L30.4359 24.4407C29.85 25.0267 29.85 25.9782 30.4359 26.5642C31.0219 27.1501 31.9734 27.1501 32.5594 26.5642L37.0594 22.0642V22.0595ZM21.4359 38.5595C22.0219 39.1454 22.9734 39.1454 23.5594 38.5595C24.1453 37.9735 24.1453 37.022 23.5594 36.436L21.6234 34.5001H36C36.8297 34.5001 37.5 33.8298 37.5 33.0001C37.5 32.1704 36.8297 31.5001 36 31.5001H21.6234L23.5641 29.5595C24.15 28.9735 24.15 28.022 23.5641 27.436C22.9781 26.8501 22.0266 26.8501 21.4406 27.436L16.9406 31.936C16.3547 32.522 16.3547 33.4735 16.9406 34.0595L21.4406 38.5595H21.4359Z" fill="#EFF3F4"/>
</svg>
