<svg width="54" height="54" viewBox="0 0 54 54" fill="none" xmlns="http://www.w3.org/2000/svg">
<rect x="1" y="1" width="52" height="52" rx="26" fill="#F26845"/>
<rect x="1" y="1" width="52" height="52" rx="26" stroke="#F26845" stroke-width="2"/>
<path d="M29.4 21.0001V29.4001H17.4V21.0001H29.4ZM17.4 18.6001C16.0763 18.6001 15 19.6763 15 21.0001V29.4001C15 30.7238 16.0763 31.8001 17.4 31.8001H21.7988L21.3975 33.0001H18.6C17.9362 33.0001 17.4 33.5363 17.4 34.2001C17.4 34.8638 17.9362 35.4001 18.6 35.4001H28.2C28.8638 35.4001 29.4 34.8638 29.4 34.2001C29.4 33.5363 28.8638 33.0001 28.2 33.0001H25.3988L24.9975 31.8001H29.4C30.7238 31.8001 31.8 30.7238 31.8 29.4001V21.0001C31.8 19.6763 30.7238 18.6001 29.4 18.6001H17.4ZM34.8 18.6001C33.8063 18.6001 33 19.4063 33 20.4001V33.6001C33 34.5938 33.8063 35.4001 34.8 35.4001H37.2C38.1938 35.4001 39 34.5938 39 33.6001V20.4001C39 19.4063 38.1938 18.6001 37.2 18.6001H34.8ZM35.4 21.0001H36.6C36.93 21.0001 37.2 21.2701 37.2 21.6001C37.2 21.9301 36.93 22.2001 36.6 22.2001H35.4C35.07 22.2001 34.8 21.9301 34.8 21.6001C34.8 21.2701 35.07 21.0001 35.4 21.0001ZM34.8 24.0001C34.8 23.6701 35.07 23.4001 35.4 23.4001H36.6C36.93 23.4001 37.2 23.6701 37.2 24.0001C37.2 24.3301 36.93 24.6001 36.6 24.6001H35.4C35.07 24.6001 34.8 24.3301 34.8 24.0001ZM36 30.0001C36.3183 30.0001 36.6235 30.1265 36.8485 30.3516C37.0736 30.5766 37.2 30.8818 37.2 31.2001C37.2 31.5184 37.0736 31.8236 36.8485 32.0486C36.6235 32.2737 36.3183 32.4001 36 32.4001C35.6817 32.4001 35.3765 32.2737 35.1515 32.0486C34.9264 31.8236 34.8 31.5184 34.8 31.2001C34.8 30.8818 34.9264 30.5766 35.1515 30.3516C35.3765 30.1265 35.6817 30.0001 36 30.0001Z" fill="#EFF3F4"/>
</svg>
